<svg version="1.1" id="Layer_1" xmlns="http://www.w3.org/2000/svg" xmlns:xlink="http://www.w3.org/1999/xlink" x="0px" y="0px"
	 width="100%" viewBox="0 0 512 512" enable-background="new 0 0 512 512" xml:space="preserve">
<path fill="#25B7D3" opacity="1.000000" stroke="none" 
	d="
M235.000000,1.000001 
	C249.354233,1.000000 263.708466,1.000000 278.741577,1.370578 
	C287.370026,2.809098 295.331848,3.794067 303.266937,4.960621 
	C326.567444,8.386075 348.545624,16.110397 369.604828,26.350529 
	C389.554993,36.051384 407.941803,48.196411 424.622559,62.979023 
	C440.372772,76.936913 454.635620,92.129089 466.841888,109.288017 
	C479.616943,127.246536 489.853455,146.573425 497.490601,167.176620 
	C504.134338,185.099823 509.007080,203.555923 511.041595,222.664642 
	C511.481812,226.799072 512.336304,230.889374 513.000000,235.000000 
	C513.000000,249.354233 513.000000,263.708466 512.629395,278.741547 
	C511.190887,287.369995 510.205872,295.331787 509.039307,303.266876 
	C505.613861,326.567413 497.889587,348.545563 487.649475,369.604767 
	C477.948578,389.554932 465.803558,407.941742 451.020996,424.622528 
	C437.063080,440.372742 421.870911,454.635620 404.711975,466.841888 
	C386.753448,479.616974 367.426544,489.853455 346.823334,497.490601 
	C328.900116,504.134338 310.444061,509.007080 291.335327,511.041626 
	C287.200897,511.481842 283.110626,512.336365 279.000000,513.000000 
	C264.645782,513.000000 250.291550,513.000000 235.258438,512.629395 
	C226.630005,511.190887 218.668243,510.205872 210.733170,509.039398 
	C187.432602,505.614075 165.454468,497.889557 144.395233,487.649536 
	C124.445038,477.948700 106.058296,465.803619 89.377502,451.021027 
	C73.627335,437.063080 59.364414,421.870941 47.158142,404.712006 
	C34.383064,386.753479 24.146584,367.426605 16.509403,346.823425 
	C9.865644,328.900208 4.992937,310.444092 2.958416,291.335358 
	C2.518222,287.200928 1.663687,283.110626 1.000000,279.000000 
	C1.000000,264.645782 1.000000,250.291550 1.370580,235.258423 
	C2.809100,226.629974 3.794103,218.668213 4.960618,210.733139 
	C8.385973,187.432602 16.110413,165.454437 26.350498,144.395233 
	C36.051327,124.445030 48.196384,106.058250 62.978992,89.377480 
	C76.936897,73.627296 92.129051,59.364388 109.287994,47.158123 
	C127.246521,34.383057 146.573410,24.146551 167.176605,16.509396 
	C185.099823,9.865648 203.555923,4.992944 222.664642,2.958421 
	C226.799072,2.518224 230.889374,1.663689 235.000000,1.000001 
M130.111145,385.756744 
	C157.339264,412.784729 193.376541,412.747894 220.538376,385.653259 
	C230.326599,375.889313 240.093384,366.103882 249.868958,356.327271 
	C258.348999,347.846344 266.909241,339.443604 275.281219,330.857330 
	C282.104218,323.859711 281.982361,316.328918 275.200623,309.240570 
	C273.128357,307.074646 270.978821,304.982086 268.847260,302.873566 
	C263.323944,297.409973 257.790894,291.956146 252.799316,287.029053 
	C264.369965,275.456787 275.367035,264.458191 286.738525,253.085098 
	C293.841980,260.231567 301.281372,267.831116 308.851288,275.298340 
	C315.930145,282.281097 323.777008,282.332397 330.820709,275.329956 
	C349.839478,256.422516 368.968079,237.619019 387.676819,218.407837 
	C412.874176,192.533646 411.618896,154.542221 384.859802,129.235733 
	C357.265564,100.862526 320.855103,100.634926 292.784241,128.674530 
	C275.228577,146.210663 257.687927,163.761810 240.145828,181.311523 
	C230.849350,190.612061 230.860703,197.457138 240.197083,206.786270 
	C246.506119,213.090378 252.838837,219.370773 258.275635,224.780777 
	C246.812225,236.310776 235.853622,247.333023 224.731949,258.519287 
	C218.344849,252.107803 211.620148,245.179367 204.695496,238.456924 
	C197.930969,231.889923 189.610291,231.912842 182.965698,238.524582 
	C163.723816,257.671356 144.337524,276.680908 125.433670,296.157532 
	C100.284775,322.068420 102.386902,361.442871 130.111145,385.756744 
z"/>
<path fill="#FFFFFF" opacity="1.000000" stroke="none" 
	d="
M234.531342,1.000001 
	C230.889374,1.663689 226.799072,2.518224 222.664642,2.958421 
	C203.555923,4.992944 185.099823,9.865648 167.176605,16.509396 
	C146.573410,24.146551 127.246521,34.383057 109.287994,47.158123 
	C92.129051,59.364388 76.936897,73.627296 62.978992,89.377480 
	C48.196384,106.058250 36.051327,124.445030 26.350498,144.395233 
	C16.110413,165.454437 8.385973,187.432602 4.960618,210.733139 
	C3.794103,218.668213 2.809100,226.629974 1.370580,234.789764 
	C1.000000,157.072952 1.000000,79.145912 1.000000,1.000000 
	C78.687424,1.000000 156.375061,1.000000 234.531342,1.000001 
z"/>
<path fill="#FFFFFF" opacity="1.000000" stroke="none" 
	d="
M513.000000,234.531342 
	C512.336304,230.889374 511.481812,226.799072 511.041595,222.664642 
	C509.007080,203.555923 504.134338,185.099823 497.490601,167.176620 
	C489.853455,146.573425 479.616943,127.246536 466.841888,109.288017 
	C454.635620,92.129089 440.372772,76.936913 424.622559,62.979023 
	C407.941803,48.196411 389.554993,36.051384 369.604828,26.350529 
	C348.545624,16.110397 326.567444,8.386075 303.266937,4.960621 
	C295.331848,3.794067 287.370026,2.809098 279.210205,1.370578 
	C356.927032,1.000000 434.854095,1.000000 513.000000,1.000000 
	C513.000000,78.687424 513.000000,156.375061 513.000000,234.531342 
z"/>
<path fill="#FFFFFF" opacity="1.000000" stroke="none" 
	d="
M1.000000,279.468658 
	C1.663687,283.110626 2.518222,287.200928 2.958416,291.335358 
	C4.992937,310.444092 9.865644,328.900208 16.509403,346.823425 
	C24.146584,367.426605 34.383064,386.753479 47.158142,404.712006 
	C59.364414,421.870941 73.627335,437.063080 89.377502,451.021027 
	C106.058296,465.803619 124.445038,477.948700 144.395233,487.649536 
	C165.454468,497.889557 187.432602,505.614075 210.733170,509.039398 
	C218.668243,510.205872 226.630005,511.190887 234.789780,512.629395 
	C157.072968,513.000000 79.145927,513.000000 1.000000,513.000000 
	C1.000000,435.312561 1.000000,357.624939 1.000000,279.468658 
z"/>
<path fill="#FFFFFF" opacity="1.000000" stroke="none" 
	d="
M279.468658,513.000000 
	C283.110626,512.336365 287.200897,511.481842 291.335327,511.041626 
	C310.444061,509.007080 328.900116,504.134338 346.823334,497.490601 
	C367.426544,489.853455 386.753448,479.616974 404.711975,466.841888 
	C421.870911,454.635620 437.063080,440.372742 451.020996,424.622528 
	C465.803558,407.941742 477.948578,389.554932 487.649475,369.604767 
	C497.889587,348.545563 505.613861,326.567413 509.039307,303.266876 
	C510.205872,295.331787 511.190887,287.369995 512.629395,279.210205 
	C513.000000,356.927032 513.000000,434.854095 513.000000,513.000000 
	C435.312561,513.000000 357.624939,513.000000 279.468658,513.000000 
z"/>
<path fill="#FEFEFF" opacity="1.000000" stroke="none" 
	d="
M129.761230,385.186218 
	C102.386902,361.442871 100.284775,322.068420 125.433670,296.157532 
	C144.337524,276.680908 163.723816,257.671356 182.965698,238.524582 
	C189.610291,231.912842 197.930969,231.889923 204.695496,238.456924 
	C211.620148,245.179367 218.344849,252.107803 224.731949,258.519287 
	C235.853622,247.333023 246.812225,236.310776 258.275635,224.780777 
	C252.838837,219.370773 246.506119,213.090378 240.197083,206.786270 
	C230.860703,197.457138 230.849350,190.612061 240.145828,181.311523 
	C257.687927,163.761810 275.228577,146.210663 292.784241,128.674530 
	C320.855103,100.634926 357.265564,100.862526 384.807190,129.824722 
	C378.194000,136.613785 371.633423,142.813873 364.777679,148.847443 
	C349.711426,132.034637 327.500183,132.626617 312.500122,148.705399 
	C299.224457,162.935760 285.061310,176.338043 271.298492,190.114456 
	C270.047211,191.367020 268.858398,192.682007 268.013947,193.573715 
	C272.009949,197.805328 275.633331,201.642365 280.095825,206.367966 
	C285.120422,200.956497 289.655975,195.367233 294.913757,190.569443 
	C303.428192,182.799942 316.208923,184.605194 321.833130,194.095032 
	C320.895966,194.792755 320.211548,195.278030 319.626526,195.862793 
	C277.961945,237.509781 236.299896,279.159332 194.676376,320.847321 
	C193.545090,321.980347 192.836258,323.535217 191.606018,324.825500 
	C181.571091,318.030853 180.252869,305.594879 188.644669,296.666595 
	C194.089172,290.874054 200.025803,285.544098 205.092468,280.636047 
	C200.817993,276.110107 197.114975,272.189240 193.495697,268.357056 
	C177.450241,284.286407 161.124802,300.191650 145.173599,316.463806 
	C137.788712,323.997314 135.188705,333.374847 136.764603,343.985748 
	C138.066971,352.754883 143.231705,359.074249 148.903931,365.470886 
	C142.461380,372.256165 136.111313,378.721191 129.761230,385.186218 
z"/>
<path fill="#E0E3E5" opacity="1.000000" stroke="none" 
	d="
M365.072876,149.013947 
	C371.633423,142.813873 378.194000,136.613785 384.947876,130.127060 
	C411.618896,154.542221 412.874176,192.533646 387.676819,218.407837 
	C368.968079,237.619019 349.839478,256.422516 330.820709,275.329956 
	C323.777008,282.332397 315.930145,282.281097 308.851288,275.298340 
	C301.281372,267.831116 293.841980,260.231567 286.738525,253.085098 
	C275.367035,264.458191 264.369965,275.456787 252.799316,287.029053 
	C257.790894,291.956146 263.323944,297.409973 268.847260,302.873566 
	C270.978821,304.982086 273.128357,307.074646 275.200623,309.240570 
	C281.982361,316.328918 282.104218,323.859711 275.281219,330.857330 
	C266.909241,339.443604 258.348999,347.846344 249.868958,356.327271 
	C240.093384,366.103882 230.326599,375.889313 220.538376,385.653259 
	C193.376541,412.747894 157.339264,412.784729 129.936188,385.471497 
	C136.111313,378.721191 142.461380,372.256165 149.183746,365.635010 
	C163.685440,381.271271 184.169434,382.147888 199.225037,367.345490 
	C214.283798,352.539978 229.124084,337.512146 244.040237,322.561920 
	C244.813751,321.786621 245.400421,320.824829 245.933716,320.132202 
	C241.259796,315.407593 236.838699,310.938538 232.156876,306.205963 
	C230.855698,307.416046 229.510986,308.616089 228.222549,309.873840 
	C223.464111,314.518982 218.918869,319.404907 213.928986,323.785095 
	C207.451019,329.471527 198.945755,329.699890 191.930420,324.893372 
	C192.836258,323.535217 193.545090,321.980347 194.676376,320.847321 
	C236.299896,279.159332 277.961945,237.509781 319.626526,195.862793 
	C320.211548,195.278030 320.895966,194.792755 322.125854,194.292419 
	C327.648346,203.133011 326.898346,210.804413 319.944397,218.006577 
	C315.335724,222.779724 310.323151,227.162872 306.219635,231.033661 
	C311.455139,236.363068 316.019531,241.009354 320.187592,245.252197 
	C336.469269,229.268051 353.205017,213.078979 369.582642,196.535339 
	C372.494110,193.594345 374.586761,189.401276 375.907471,185.406174 
	C380.697510,170.916245 375.618591,159.084930 365.072876,149.013947 
z"/>
<path fill="#26B7D3" opacity="1.000000" stroke="none" 
	d="
M364.777679,148.847443 
	C375.618591,159.084930 380.697510,170.916245 375.907471,185.406174 
	C374.586761,189.401276 372.494110,193.594345 369.582642,196.535339 
	C353.205017,213.078979 336.469269,229.268051 320.187592,245.252197 
	C316.019531,241.009354 311.455139,236.363068 306.219635,231.033661 
	C310.323151,227.162872 315.335724,222.779724 319.944397,218.006577 
	C326.898346,210.804413 327.648346,203.133011 322.424988,194.126404 
	C316.208923,184.605194 303.428192,182.799942 294.913757,190.569443 
	C289.655975,195.367233 285.120422,200.956497 280.095825,206.367966 
	C275.633331,201.642365 272.009949,197.805328 268.013947,193.573715 
	C268.858398,192.682007 270.047211,191.367020 271.298492,190.114456 
	C285.061310,176.338043 299.224457,162.935760 312.500122,148.705399 
	C327.500183,132.626617 349.711426,132.034637 364.777679,148.847443 
z"/>
<path fill="#26B7D3" opacity="1.000000" stroke="none" 
	d="
M191.606018,324.825500 
	C198.945755,329.699890 207.451019,329.471527 213.928986,323.785095 
	C218.918869,319.404907 223.464111,314.518982 228.222549,309.873840 
	C229.510986,308.616089 230.855698,307.416046 232.156876,306.205963 
	C236.838699,310.938538 241.259796,315.407593 245.933716,320.132202 
	C245.400421,320.824829 244.813751,321.786621 244.040237,322.561920 
	C229.124084,337.512146 214.283798,352.539978 199.225037,367.345490 
	C184.169434,382.147888 163.685440,381.271271 149.276215,365.314728 
	C143.231705,359.074249 138.066971,352.754883 136.764603,343.985748 
	C135.188705,333.374847 137.788712,323.997314 145.173599,316.463806 
	C161.124802,300.191650 177.450241,284.286407 193.495697,268.357056 
	C197.114975,272.189240 200.817993,276.110107 205.092468,280.636047 
	C200.025803,285.544098 194.089172,290.874054 188.644669,296.666595 
	C180.252869,305.594879 181.571091,318.030853 191.606018,324.825500 
z"/>
</svg>